PathFileType	4	(X/Y/Z)	outputs\dynamic_markers.trc
DataRate	CameraRate	NumFrames	NumMarkers	Units	OrigDataRate	OrigDataStartFrame	OrigNumFrames
360.000000	360.000000	4	45	m	360.000000	153	612
Frame#	Time	C7			CLAV			LANK			LASI			LBHD			LELB			LFHD			LFIN			LFRM			LHEE			LKNE			LMANK			LMELB			LMKNE			LPSI			LSHO			LTHI			LTIB			LTOE			LUPA			LWRA			LWRB			RANK			RASI			RBAK			RBHD			RELB			RFHD			RFIN			RFRM			RHEE			RKNE			RMANK			RMELB			RMKNE			RPSI			RSHO			RTHI			RTIB			RTOE			RUPA			RWRA			RWRB			STRN			T10			
		X1	Y1	Z1	X2	Y2	Z2	X3	Y3	Z3	X4	Y4	Z4	X5	Y5	Z5	X6	Y6	Z6	X7	Y7	Z7	X8	Y8	Z8	X9	Y9	Z9	X10	Y10	Z10	X11	Y11	Z11	X12	Y12	Z12	X13	Y13	Z13	X14	Y14	Z14	X15	Y15	Z15	X16	Y16	Z16	X17	Y17	Z17	X18	Y18	Z18	X19	Y19	Z19	X20	Y20	Z20	X21	Y21	Z21	X22	Y22	Z22	X23	Y23	Z23	X24	Y24	Z24	X25	Y25	Z25	X26	Y26	Z26	X27	Y27	Z27	X28	Y28	Z28	X29	Y29	Z29	X30	Y30	Z30	X31	Y31	Z31	X32	Y32	Z32	X33	Y33	Z33	X34	Y34	Z34	X35	Y35	Z35	X36	Y36	Z36	X37	Y37	Z37	X38	Y38	Z38	X39	Y39	Z39	X40	Y40	Z40	X41	Y41	Z41	X42	Y42	Z42	X43	Y43	Z43	X44	Y44	Z44	X45	Y45	Z45	

154	0.425	0.07158838212490082	1.639459848403931	0.0286882258951664	0.05288846045732498	1.526959657669067	0.1717607080936432	0.09410736709833145	0.6257636547088623	0.5536732077598572	0.2190756052732468	1.129047751426697	0.1550478935241699	0.03421304747462273	1.762876987457275	0.07866624742746353	0.2787257134914398	1.24286162853241	0.3521066308021545	0.1720391511917114	1.78443169593811	0.1503407955169678	0.03706539794802666	1.492100238800049	0.4512581825256348	0.1857241541147232	1.3547443151474	0.3995072245597839	0.05987278744578362	0.6355928182601929	0.476629912853241	0.1127129718661308	1.107891201972961	0.55073082447052	-0.008655115962028503	0.6364597082138062	0.5233195424079895	0.2215047478675842	1.191965341567993	0.2993508875370026	0.003442211775109172	1.100647568702698	0.5037652850151062	0.2408325672149658	1.065783143043518	-0.06752009689807892	0.2258009910583496	1.579691171646118	0.1541102379560471	0.2022285312414169	1.102695345878601	0.427355170249939	0.1339656710624695	0.9974666237831116	0.5505656003952026	-0.004416219890117645	0.602321982383728	0.689677894115448	0.2927424609661102	1.375623822212219	0.2788638472557068	0.09542335569858551	1.424831390380859	0.3968043923377991	0.05935880169272423	1.370986819267273	0.4497270882129669	-0.009065060876309872	0.09686202555894852	0.1005502641201019	-0.001567160245031118	1.067747473716736	0.08484978228807449	0.01102164015173912	1.396873712539673	-0.1259717047214508	-0.02378636598587036	1.751310467720032	0.1934732049703598	-0.318289577960968	1.369493365287781	0.1235731393098831	0.1079199984669685	1.776104331016541	0.2734397351741791	-0.09344352781772614	1.535666584968567	0.3222973644733429	-0.2056705355644226	1.453540921211243	0.2185621857643127	0.04409155622124672	0.0653010681271553	0.02748933248221874	0.009449843317270279	0.568203866481781	0.2093539535999298	0.09829560667276382	0.05908758938312531	0.1235536634922028	-0.265927642583847	1.28613018989563	0.1045359745621681	0.1260893791913986	0.5378266572952271	0.2088169455528259	0.1658670157194138	1.055353760719299	-0.09390600770711899	-0.07819812744855881	1.614905714988708	0.01994932442903519	-0.03464175388216972	0.8241323828697205	0.1005233973264694	-0.0154432924464345	0.4034080505371094	0.1742260605096817	0.05287985503673553	0.07918708771467209	0.257764995098114	-0.2285850346088409	1.487572193145752	0.08203262835741043	-0.1045197695493698	1.472938656806946	0.2667907476425171	-0.1689644604921341	1.474448800086975	0.313921719789505	0.05557578057050705	1.292394518852234	0.1587402671575546	0.1529511064291	1.275113105773926	-0.1077575907111168	
155	0.4277777777777778	0.07279805094003677	1.639135479927063	0.02897189743816853	0.05364927276968956	1.52665388584137	0.171991765499115	0.09110289812088013	0.6316767930984497	0.557008683681488	0.2196509540081024	1.129647612571716	0.1559796780347824	0.03520525246858597	1.762568712234497	0.07870752364397049	0.2782635688781738	1.243981599807739	0.3552492558956146	0.1728377938270569	1.783957242965698	0.1505556404590607	0.0368792787194252	1.494462847709656	0.4518032670021057	0.185550257563591	1.356577515602112	0.4013784527778625	0.05735398083925247	0.6411604881286621	0.4796640276908875	0.1103391051292419	1.113625168800354	0.5501600503921509	-0.01146614737808704	0.6423479318618774	0.52580326795578	0.2210574895143509	1.192610263824463	0.3026745617389679	0.001598968170583248	1.106142520904541	0.5025410652160645	0.2431850880384445	1.065402507781982	-0.06597010791301727	0.226369246840477	1.579350471496582	0.1549933552742004	0.20088791847229	1.10737931728363	0.4278190433979034	0.1315069049596786	1.003228783607483	0.5512483716011047	-0.00876370444893837	0.6094634532928467	0.6924331188201904	0.2927424013614655	1.376160740852356	0.2809198200702667	0.09545290470123291	1.426903009414673	0.3983264863491058	0.05908718332648277	1.373530745506287	0.4515998661518097	-0.009038686752319336	0.09685085713863373	0.1005527004599571	-0.0001842154742917046	1.067965030670166	0.08419179171323776	0.01312471367418766	1.396708130836487	-0.1259235739707947	-0.02300465106964111	1.751005887985229	0.1935715079307556	-0.3182065188884735	1.370784878730774	0.1235309243202209	0.1086622849106789	1.775725245475769	0.2735984921455383	-0.09347018599510193	1.537311315536499	0.3222042620182037	-0.205582469701767	1.455050349235535	0.2183288484811783	0.04422307386994362	0.06531188637018204	0.0275422465056181	0.009153788909316063	0.5683958530426025	0.2090957313776016	0.09821813553571701	0.05918191745877266	0.123680405318737	-0.2660843133926392	1.286911964416504	0.1052876710891724	0.1258336752653122	0.5377697944641113	0.2096467912197113	0.1685269474983215	1.054814457893372	-0.09309336543083191	-0.07719544321298599	1.614698767662048	0.01961377076804638	-0.03290605545043945	0.82427579164505	0.09940324723720551	-0.01559179183095694	0.4036433100700378	0.1738550812005997	0.05246036127209663	0.07930425554513931	0.2578648328781128	-0.2277506589889526	1.488128542900085	0.08182091265916824	-0.1045092269778252	1.474205613136292	0.2671230733394623	-0.1692678481340408	1.476479768753052	0.3138239681720734	0.0562610924243927	1.292061686515808	0.1588190197944641	0.1553640365600586	1.275164842605591	-0.1075664237141609	
156	0.4305555555555556	0.07385865598917007	1.638833999633789	0.02909164316952229	0.05436911061406136	1.526320457458496	0.1721015274524689	0.0879780650138855	0.6378437280654907	0.560290515422821	0.2202749103307724	1.130318403244019	0.1568306237459183	0.0360611118376255	1.762205362319946	0.07881352305412292	0.2776568531990051	1.245067954063416	0.3583129346370697	0.1736606955528259	1.783572316169739	0.1507203578948975	0.03674791008234024	1.497023701667786	0.4526283144950867	0.1853597164154053	1.358281135559082	0.403283566236496	0.05496596917510033	0.6466982960700989	0.4825917482376099	0.1081480011343956	1.119479179382324	0.5497616529464722	-0.01427268795669079	0.6481491327285767	0.5280553102493286	0.2201715856790543	1.193621158599854	0.3061843812465668	-0.0003522377810440958	1.111604452133179	0.5011996030807495	0.2455661296844482	1.064936518669128	-0.06455540657043457	0.2268759906291962	1.5790776014328	0.1557391583919525	0.1995848417282104	1.11198103427887	0.4282338619232178	0.1294186860322952	1.008805394172668	0.5516102910041809	-0.01305840164422989	0.6165193319320679	0.6949582695960999	0.2928772568702698	1.376569628715515	0.2827716171741486	0.09558884799480438	1.428785443305969	0.399769127368927	0.05889160186052322	1.376016139984131	0.4532961249351501	-0.009022435173392296	0.09684387594461441	0.1005411595106125	0.001201417297124863	1.068182587623596	0.08349429070949554	0.0151904821395874	1.396584272384644	-0.1260818243026733	-0.02223075181245804	1.750643730163574	0.1936023533344269	-0.3180362284183502	1.371956348419189	0.1235446035861969	0.1093905791640282	1.775291681289673	0.2738504409790039	-0.09338123351335526	1.538955211639404	0.3221129179000854	-0.2055330574512482	1.456429839134216	0.2180449962615967	0.0443517230451107	0.06533967703580856	0.02759912610054016	0.009057311341166496	0.5685861110687256	0.2088949978351593	0.09816707670688629	0.05930210649967194	0.1237906068563461	-0.2662967145442963	1.287810206413269	0.1059985980391502	0.1255286633968353	0.5377181172370911	0.2104741483926773	0.1711847633123398	1.054209113121033	-0.09210945665836334	-0.0757649764418602	1.614393353462219	0.01966189034283161	-0.03237316012382507	0.8247115612030029	0.09911749511957169	-0.01573300175368786	0.4038800597190857	0.1735663264989853	0.052173912525177	0.07936209440231323	0.2579395771026611	-0.2270112335681915	1.488623380661011	0.08156873285770416	-0.1044557169079781	1.475418329238892	0.267472118139267	-0.1693787425756454	1.478333473205566	0.3135769367218018	0.05694787949323654	1.291803002357483	0.1588535159826279	0.157761812210083	1.275182366371155	-0.1072112992405891	
157	0.4333333333333333	0.07462693005800247	1.638574361801147	0.02923286519944668	0.05481542274355888	1.526059150695801	0.1721463948488235	0.08596844971179962	0.6419025659561157	0.5624743700027466	0.2207197546958923	1.130767107009888	0.1573986411094666	0.03668341413140297	1.761949777603149	0.07892953604459763	0.2773280441761017	1.245821475982666	0.3603406846523285	0.1742823123931885	1.783279776573181	0.1508978009223938	0.03666407242417336	1.498680114746094	0.4530973434448242	0.1852088272571564	1.359350204467773	0.4044705927371979	0.05341570451855659	0.6503328680992126	0.484450101852417	0.1066092625260353	1.123440504074097	0.5493741631507874	-0.01614976674318314	0.6520552635192871	0.5295082926750183	0.2197553217411041	1.194318652153015	0.3084669411182404	-0.001530000823549926	1.115198135375977	0.5003882050514221	0.2471425831317902	1.064603328704834	-0.06354936212301254	0.2272834479808807	1.578912496566772	0.1563321202993393	0.19882932305336	1.115015268325806	0.4283688366413116	0.1278192698955536	1.012634515762329	0.5519662499427795	-0.01593239605426788	0.6212140917778015	0.6965463757514954	0.2928733229637146	1.37680459022522	0.2839735746383667	0.09551587700843811	1.430168151855469	0.4007907807826996	0.05868691205978394	1.377775073051453	0.454431027173996	-0.009000884369015694	0.09682092070579529	0.1005394235253334	0.002099206671118736	1.068424344062805	0.08308186382055283	0.01648985408246517	1.396471619606018	-0.126165047287941	-0.02173799462616444	1.75046706199646	0.1935726255178452	-0.3179079294204712	1.372720956802368	0.1235717982053757	0.1098022982478142	1.775035619735718	0.2739880084991455	-0.09340400248765945	1.539939761161804	0.3220676183700562	-0.2053406834602356	1.457308769226074	0.2179604172706604	0.04444370418787003	0.06535785645246506	0.02763937599956989	0.008992969058454037	0.5687423944473267	0.2087198495864868	0.09810071438550949	0.05933774262666702	0.123897559940815	-0.2664277255535126	1.288372039794922	0.1065475195646286	0.1252510845661163	0.5376909971237183	0.2110886722803116	0.1730246990919113	1.053796648979187	-0.09153705835342407	-0.07461334764957428	1.614094257354736	0.01970040798187256	-0.03156639263033867	0.8249123096466064	0.0988636389374733	-0.01586066745221615	0.4040159583091736	0.1733375489711761	0.0520012378692627	0.07941184937953949	0.2579914629459381	-0.2265743911266327	1.489022493362427	0.08137321472167969	-0.1043969094753265	1.476197481155396	0.2677140235900879	-0.1696285158395767	1.479542374610901	0.3135297298431396	0.05737790465354919	1.291671633720398	0.1589639335870743	0.1593534499406815	1.275248169898987	-0.1070385202765465	
